<?xml version="1.0" encoding="utf-8"?>
<!-- Generator: Adobe Illustrator 26.3.1, SVG Export Plug-In . SVG Version: 6.00 Build 0)  -->
<svg version="1.1" id="GSynergy_Logo" xmlns="http://www.w3.org/2000/svg" xmlns:xlink="http://www.w3.org/1999/xlink" x="0px"
	 y="0px" viewBox="0 0 684.8 274.3" style="enable-background:new 0 0 684.8 274.3;" xml:space="preserve">
<style type="text/css">
	.st0{display:none;}
	.st1{display:inline;fill:#6D6E70;}
	.st2{display:none;fill:#6D6E70;}
	.st3{font-family:'Avenir-Light';}
	.st4{font-size:22.5px;}
	.st5{fill:#6D6E70;}
	.st6{fill:#2F8A9C;}
	.st7{fill:none;stroke:#2F8A9C;stroke-width:13;stroke-miterlimit:10;}
	.st8{font-size:36px;}
</style>
<g id="Synergy_font">
	<g id="Synergy_font_00000099659795681640443090000006373611806586270098_" class="st0">
		<path class="st1" d="M171.7,147.4c-4.8,0-9.1-0.6-13-1.8c-3.9-1.2-7.3-2.7-10.2-4.5c-2.9-1.8-5.4-3.6-7.4-5.4
			c-2-1.8-3.5-3.3-4.6-4.4l8.3-12.7c1.1,1.2,2.5,2.5,4.2,4.1c1.7,1.6,3.7,3.2,6,4.7c2.3,1.5,4.8,2.8,7.7,3.9c2.9,1.1,6,1.6,9.4,1.6
			c3.2,0,6.1-0.5,8.7-1.6c2.6-1.1,4.6-2.7,6.1-4.9c1.5-2.1,2.3-4.8,2.3-8c0-2.8-0.6-5.1-1.7-7.1c-1.1-2-2.8-3.7-4.9-5.1
			c-2.1-1.5-4.6-2.9-7.6-4.2s-6.2-2.7-9.8-4.2c-2.6-1.1-5.1-2.3-7.6-3.8c-2.5-1.5-4.7-3.2-6.8-5.1c-2-2-3.7-4.3-4.9-6.9
			c-1.2-2.6-1.8-5.7-1.8-9.1c0-3.7,0.7-7.3,2.2-10.6c1.5-3.4,3.5-6.4,6.2-9c2.7-2.6,5.9-4.7,9.6-6.2c3.7-1.5,7.9-2.3,12.4-2.3
			c3.7,0,7.3,0.5,10.8,1.6c3.5,1.1,6.7,2.5,9.6,4.2c2.9,1.7,5.3,3.5,7.2,5.5l-6.8,12c-1.5-1.6-3.3-3-5.5-4.4c-2.1-1.4-4.5-2.5-7-3.3
			c-2.5-0.8-5.2-1.3-8-1.3c-3.3,0-6.1,0.6-8.3,1.9c-2.3,1.3-4,3-5.2,5c-1.2,2.1-1.8,4.3-1.8,6.8c0,2,0.4,3.8,1.3,5.2
			c0.9,1.5,2,2.7,3.5,3.8c1.5,1,3.2,2,5.2,2.8c2,0.9,4.1,1.7,6.3,2.6c4.4,1.8,8.4,3.6,12.1,5.4c3.7,1.8,6.9,3.8,9.6,6.1
			c2.7,2.3,4.8,5,6.3,8.2c1.5,3.2,2.2,6.9,2.2,11.3c0,6.2-1.5,11.5-4.4,15.9c-2.9,4.4-7,7.7-12.2,10.1
			C184.4,146.2,178.5,147.4,171.7,147.4z"/>
		<path class="st1" d="M225.6,176.7l18.1-36.7l-29.2-56h17l20.8,41.4L270.8,84h17l-45.2,92.6H225.6z"/>
		<path class="st1" d="M300.4,145.5V84h14.9v7.4c2.2-2.7,5-4.9,8.5-6.7c3.5-1.7,7.5-2.6,12.1-2.6c4.8,0,8.9,1,12.5,3
			c3.5,2,6.3,4.9,8.2,8.6c2,3.7,2.9,8.1,2.9,13.1v38.7h-14.9v-35.6c0-5.1-1.3-9.1-3.8-11.9c-2.5-2.8-6.1-4.2-10.5-4.2
			c-3.1,0-5.8,0.6-8,1.9c-2.2,1.3-3.9,2.9-5.1,5c-1.2,2.1-1.8,4.4-1.8,7v37.7H300.4z"/>
		<path class="st1" d="M410.9,147.4c-6.6,0-12.4-1.4-17.6-4.3c-5.2-2.8-9.3-6.7-12.3-11.6c-3-4.9-4.5-10.5-4.5-16.6
			c0-4.6,0.8-8.9,2.5-12.8c1.7-3.9,4.1-7.4,7.1-10.4c3.1-3,6.6-5.3,10.6-7c4-1.7,8.4-2.5,13.1-2.5c6.4,0,12,1.3,16.8,4
			c4.8,2.6,8.6,6.3,11.3,11.1c2.7,4.7,4,10.2,4,16.4c0,0.5-0.1,1-0.1,1.4c0,0.4-0.1,1-0.2,1.7h-50c0,3.7,0.8,6.9,2.5,9.8
			c1.7,2.8,4,5,7.1,6.6c3,1.6,6.5,2.4,10.4,2.4c3.7,0,7-0.8,9.9-2.2c2.9-1.5,5.5-3.8,7.9-6.9l10.9,5.6c-2.9,4.9-7,8.7-12.2,11.4
			C423,146,417.2,147.4,410.9,147.4z M392.3,107.2h34.9c-0.5-2.8-1.6-5.2-3.2-7.3c-1.6-2-3.6-3.6-6.1-4.8c-2.4-1.1-5.2-1.7-8.2-1.7
			c-3.2,0-6,0.6-8.5,1.6c-2.5,1.1-4.5,2.7-6,4.7C393.8,102,392.8,104.4,392.3,107.2z"/>
		<path class="st1" d="M460.1,145.5V84H475V93c2.2-3.5,4.9-6.2,8.1-8.1c3.2-1.9,6.8-2.8,10.7-2.8c2,0,4.1,0.3,6.2,0.8
			c2.1,0.6,4,1.3,5.5,2.2l-6.2,12.6c-1.3-0.8-2.8-1.5-4.5-1.9c-1.7-0.4-3.4-0.7-4.8-0.7c-2.5,0-4.9,0.7-7.2,1.9
			c-2.3,1.3-4.2,3-5.6,5.1c-1.4,2.1-2.1,4.3-2.1,6.7v36.6H460.1z"/>
		<path class="st1" d="M546.6,178.5c-8.1,0-14.9-1.5-20.4-4.6c-5.5-3-9.6-7.5-12.2-13.3l12.2-5.9c1.8,3.3,4.5,6,8.2,8
			c3.7,2,7.7,3,12.2,3c3.9,0,7.3-0.8,10.4-2.3c3-1.6,5.4-3.8,7.1-6.6c1.7-2.9,2.6-6.2,2.6-10.1v-10.9c-2.7,3.7-6,6.6-10,8.7
			c-4,2.1-8.3,3.1-13,3.1c-5.6,0-10.7-1.4-15.3-4.2c-4.6-2.8-8.3-6.6-11-11.5c-2.7-4.9-4.1-10.6-4.1-16.9c0-6.2,1.3-11.8,4-16.7
			c2.7-4.9,6.3-8.8,10.9-11.6c4.6-2.8,9.9-4.3,15.8-4.3c4.7,0,9.1,1,13.1,3c4,2,7.2,4.8,9.6,8.3V84h14.9v63.1c0,6.3-1.3,11.8-4,16.5
			c-2.6,4.7-6.6,8.3-11.7,10.9C560.7,177.2,554.3,178.5,546.6,178.5z M547.9,134.6c3.7,0,7-0.8,9.9-2.5c2.9-1.7,5.2-4,6.8-7
			c1.6-3,2.4-6.4,2.4-10.2c0-3.9-0.8-7.3-2.5-10.3c-1.6-3-3.9-5.3-6.8-7c-2.9-1.7-6.1-2.6-9.8-2.6c-3.7,0-7,0.9-9.8,2.6
			c-2.9,1.7-5.1,4.1-6.8,7.1c-1.7,3-2.5,6.4-2.5,10.3c0,3.8,0.8,7.2,2.4,10.2c1.6,3,3.9,5.3,6.8,7
			C541,133.8,544.3,134.6,547.9,134.6z"/>
		<path class="st1" d="M605,176.7L623,140l-29.2-56h17l20.8,41.4L650.2,84h17L622,176.7H605z"/>
	</g>
</g>
<text id="Tagline_Short" transform="matrix(1 0 0 1 225.1474 205.7938)" class="st2 st3 st4">We Engineer Business Transformations</text>
<g id="G">
	<g>
		<path class="st5" d="M76.9,59.7c13.4-1,25.4,5.4,32.3,15.5L125,64.8c-10-14.8-26.9-24.4-46.1-24.2c-30.2,0.4-54.6,25.8-53.8,56
			c0.5,21.9,14.1,40.7,33.2,48.9l15.2-15.1c-18.1-3.3-31.8-20.6-29.1-40.1C46.7,73.8,60.4,61,76.9,59.7z"/>
	</g>
	<g>
		<path class="st6" d="M58.4,145.5h21.3c1.5,0,2.9-0.6,4-1.6l27-26.3l-11.5-12.6L58.4,145.5z"/>
		<path class="st6" d="M120.2,103v42.4h-11.6c-2.2,0-4-1.8-4-4V103H120.2z"/>
		<path class="st6" d="M120.2,110.8H75.6c-2.2,0-4-1.8-4-4V95.2h48.6V110.8z"/>
	</g>
</g>
<g id="Synergy_vector">
	<path class="st5" d="M171.7,147.4c-4.8,0-9.1-0.6-13-1.8c-3.9-1.2-7.3-2.7-10.2-4.5c-2.9-1.8-5.4-3.6-7.4-5.4s-3.5-3.3-4.6-4.4
		l8.3-12.7c1.1,1.2,2.5,2.5,4.2,4.1c1.7,1.6,3.7,3.2,6,4.7c2.3,1.5,4.8,2.8,7.7,3.9c2.9,1.1,6,1.6,9.4,1.6c3.2,0,6.1-0.5,8.7-1.7
		c2.6-1.1,4.6-2.7,6.1-4.9c1.5-2.1,2.3-4.8,2.3-8c0-2.8-0.6-5.1-1.7-7.1c-1.1-2-2.8-3.7-4.9-5.1c-2.1-1.5-4.6-2.9-7.6-4.2
		s-6.2-2.7-9.8-4.2c-2.6-1.1-5.1-2.3-7.6-3.8c-2.5-1.5-4.7-3.2-6.8-5.1c-2-2-3.7-4.3-4.9-6.9c-1.2-2.6-1.8-5.7-1.8-9.1
		c0-3.7,0.7-7.3,2.2-10.6c1.5-3.4,3.5-6.4,6.2-9c2.7-2.6,5.9-4.7,9.6-6.2c3.7-1.5,7.9-2.3,12.4-2.3c3.7,0,7.3,0.5,10.8,1.6
		c3.5,1.1,6.7,2.5,9.6,4.2c2.9,1.7,5.3,3.5,7.2,5.5l-6.8,12c-1.5-1.6-3.3-3-5.5-4.4c-2.1-1.4-4.5-2.5-7-3.3c-2.5-0.8-5.2-1.3-8-1.3
		c-3.3,0-6.1,0.6-8.3,1.9c-2.3,1.3-4,3-5.2,5c-1.2,2.1-1.8,4.3-1.8,6.8c0,2,0.4,3.8,1.3,5.2c0.9,1.5,2,2.7,3.5,3.8
		c1.5,1,3.2,2,5.2,2.8c2,0.9,4.1,1.7,6.3,2.6c4.4,1.8,8.4,3.6,12.1,5.4c3.7,1.8,6.9,3.8,9.6,6.1c2.7,2.3,4.8,5,6.3,8.2
		c1.5,3.2,2.2,6.9,2.2,11.3c0,6.2-1.5,11.5-4.4,15.9c-2.9,4.4-7,7.7-12.2,10C184.5,146.2,178.5,147.4,171.7,147.4z"/>
	<path class="st5" d="M224.9,176.7L243,140l-29.2-56h17l20.8,41.4L270.1,84h17l-45.2,92.6H224.9z"/>
	<path class="st5" d="M299.7,145.5V84h14.9v7.4c2.2-2.7,5-4.9,8.5-6.7c3.5-1.7,7.5-2.6,12.1-2.6c4.8,0,8.9,1,12.4,3
		c3.5,2,6.3,4.9,8.2,8.6c2,3.7,2.9,8.1,2.9,13.1v38.7h-14.9v-35.6c0-5.1-1.3-9.1-3.8-11.9c-2.5-2.8-6.1-4.2-10.5-4.2
		c-3.1,0-5.8,0.6-8,1.9c-2.2,1.3-3.9,2.9-5.1,5c-1.2,2.1-1.8,4.4-1.8,7v37.7H299.7z"/>
	<path class="st5" d="M410.2,147.4c-6.6,0-12.4-1.4-17.6-4.3c-5.2-2.8-9.3-6.7-12.3-11.6c-3-4.9-4.5-10.5-4.5-16.6
		c0-4.6,0.8-8.9,2.5-12.8c1.7-3.9,4.1-7.4,7.1-10.4c3.1-3,6.6-5.3,10.6-7c4-1.7,8.4-2.5,13.1-2.5c6.4,0,12,1.3,16.8,4
		c4.8,2.6,8.6,6.3,11.3,11.1c2.7,4.7,4,10.2,4,16.4c0,0.5-0.1,1-0.1,1.4c0,0.4-0.1,1-0.2,1.7h-50c0,3.7,0.8,6.9,2.5,9.8
		c1.7,2.8,4,5.1,7.1,6.6c3,1.6,6.5,2.4,10.4,2.4c3.7,0,7-0.8,9.9-2.2c2.9-1.5,5.5-3.8,7.9-6.9l10.9,5.6c-2.9,4.9-7,8.7-12.2,11.4
		C422.3,146,416.5,147.4,410.2,147.4z M391.6,107.2h34.9c-0.5-2.8-1.6-5.2-3.2-7.3c-1.6-2-3.6-3.6-6.1-4.8c-2.4-1.1-5.2-1.7-8.2-1.7
		c-3.2,0-6,0.6-8.5,1.6c-2.5,1.1-4.5,2.7-6,4.7C393.1,102,392.1,104.4,391.6,107.2z"/>
	<path class="st5" d="M459.1,145.5V84h14.9V93c2.2-3.5,4.9-6.2,8.1-8.1c3.2-1.9,6.8-2.8,10.7-2.8c2,0,4.1,0.3,6.2,0.8
		c2.1,0.6,4,1.3,5.5,2.2l-6.2,12.6c-1.3-0.8-2.8-1.5-4.5-1.9c-1.7-0.4-3.4-0.7-4.8-0.7c-2.5,0-4.9,0.7-7.2,1.9
		c-2.3,1.3-4.2,3-5.6,5.1c-1.4,2.1-2.1,4.3-2.1,6.7v36.6H459.1z"/>
	<path class="st5" d="M592.1,176.7l18.1-36.7L581,84h17l20.8,41.4L637.3,84h17l-45.2,92.6H592.1z"/>
</g>
<g id="g">
	<ellipse class="st7" cx="540.5" cy="107.2" rx="20.7" ry="21.2"/>
	<g>
		<path class="st6" d="M558.1,153.2c1.4,0,2.6,1.2,2.6,2.6v6.3c0,1.4-1.2,2.6-2.6,2.6h-35.2c-1.4,0-2.6-1.2-2.6-2.6v-6.3
			c0-1.4,1.2-2.6,2.6-2.6H558.1 M558.1,141.2h-35.2c-8,0-14.6,6.6-14.6,14.6v6.3c0,8,6.6,14.6,14.6,14.6h35.2
			c8,0,14.6-6.6,14.6-14.6v-6.3C572.7,147.8,566.1,141.2,558.1,141.2L558.1,141.2z"/>
	</g>
</g>
<text id="Tagline_Long" transform="matrix(1 0 0 1 32.1274 224.036)" class="st5 st3 st8">We Engineer Business Transformations</text>
</svg>
